<mxfile host="app.diagrams.net" agent="Mozilla/5.0 (Windows NT 10.0; Win64; x64) AppleWebKit/537.36 (KHTML, like Gecko) Chrome/129.0.0.0 Safari/537.36" version="24.7.16">
  <diagram name="Page-1" id="jTc7opbGR0uFoSRNLptF">
    <mxGraphModel dx="1418" dy="785" grid="1" gridSize="10" guides="1" tooltips="1" connect="1" arrows="1" fold="1" page="1" pageScale="1" pageWidth="850" pageHeight="1100" math="0" shadow="0">
      <root>
        <mxCell id="0" />
        <mxCell id="1" parent="0" />
        <mxCell id="6feyMo93jq5YWXHwndtJ-1" value="" style="ellipse;whiteSpace=wrap;html=1;" vertex="1" parent="1">
          <mxGeometry x="50" y="30" width="80" height="50" as="geometry" />
        </mxCell>
        <mxCell id="6feyMo93jq5YWXHwndtJ-3" value="" style="endArrow=classic;html=1;rounded=0;" edge="1" parent="1">
          <mxGeometry width="50" height="50" relative="1" as="geometry">
            <mxPoint x="89.41" y="80" as="sourcePoint" />
            <mxPoint x="90" y="120" as="targetPoint" />
          </mxGeometry>
        </mxCell>
        <mxCell id="6feyMo93jq5YWXHwndtJ-4" value="" style="shape=hexagon;perimeter=hexagonPerimeter2;whiteSpace=wrap;html=1;fixedSize=1;" vertex="1" parent="1">
          <mxGeometry x="40" y="120" width="110" height="60" as="geometry" />
        </mxCell>
        <mxCell id="6feyMo93jq5YWXHwndtJ-5" value="" style="endArrow=classic;html=1;rounded=0;exitX=0.5;exitY=1;exitDx=0;exitDy=0;" edge="1" parent="1" source="6feyMo93jq5YWXHwndtJ-162">
          <mxGeometry width="50" height="50" relative="1" as="geometry">
            <mxPoint x="94.41" y="290" as="sourcePoint" />
            <mxPoint x="95" y="330" as="targetPoint" />
            <Array as="points">
              <mxPoint x="95" y="330" />
            </Array>
          </mxGeometry>
        </mxCell>
        <mxCell id="6feyMo93jq5YWXHwndtJ-7" value="" style="shape=parallelogram;perimeter=parallelogramPerimeter;whiteSpace=wrap;html=1;fixedSize=1;" vertex="1" parent="1">
          <mxGeometry x="40" y="220" width="110" height="60" as="geometry" />
        </mxCell>
        <mxCell id="6feyMo93jq5YWXHwndtJ-8" value="" style="rhombus;whiteSpace=wrap;html=1;" vertex="1" parent="1">
          <mxGeometry x="55" y="330" width="80" height="80" as="geometry" />
        </mxCell>
        <mxCell id="6feyMo93jq5YWXHwndtJ-11" value="" style="endArrow=classic;html=1;rounded=0;" edge="1" parent="1">
          <mxGeometry width="50" height="50" relative="1" as="geometry">
            <mxPoint x="130" y="370.5" as="sourcePoint" />
            <mxPoint x="190" y="369.5" as="targetPoint" />
          </mxGeometry>
        </mxCell>
        <mxCell id="6feyMo93jq5YWXHwndtJ-125" value="" style="edgeStyle=orthogonalEdgeStyle;rounded=0;orthogonalLoop=1;jettySize=auto;html=1;" edge="1" parent="1">
          <mxGeometry relative="1" as="geometry">
            <mxPoint x="94.41" y="180" as="sourcePoint" />
            <mxPoint x="94.41" y="220" as="targetPoint" />
          </mxGeometry>
        </mxCell>
        <mxCell id="6feyMo93jq5YWXHwndtJ-127" value="" style="rhombus;whiteSpace=wrap;html=1;" vertex="1" parent="1">
          <mxGeometry x="190" y="330" width="80" height="80" as="geometry" />
        </mxCell>
        <mxCell id="6feyMo93jq5YWXHwndtJ-129" value="" style="endArrow=classic;html=1;rounded=0;" edge="1" parent="1">
          <mxGeometry width="50" height="50" relative="1" as="geometry">
            <mxPoint x="270" y="370.5" as="sourcePoint" />
            <mxPoint x="330" y="369.5" as="targetPoint" />
          </mxGeometry>
        </mxCell>
        <mxCell id="6feyMo93jq5YWXHwndtJ-130" value="" style="rhombus;whiteSpace=wrap;html=1;" vertex="1" parent="1">
          <mxGeometry x="330" y="330" width="80" height="80" as="geometry" />
        </mxCell>
        <mxCell id="6feyMo93jq5YWXHwndtJ-131" value="" style="endArrow=classic;html=1;rounded=0;" edge="1" parent="1">
          <mxGeometry width="50" height="50" relative="1" as="geometry">
            <mxPoint x="410" y="370.5" as="sourcePoint" />
            <mxPoint x="470" y="369.5" as="targetPoint" />
          </mxGeometry>
        </mxCell>
        <mxCell id="6feyMo93jq5YWXHwndtJ-132" value="" style="rhombus;whiteSpace=wrap;html=1;" vertex="1" parent="1">
          <mxGeometry x="470" y="330" width="80" height="80" as="geometry" />
        </mxCell>
        <mxCell id="6feyMo93jq5YWXHwndtJ-133" value="" style="endArrow=classic;html=1;rounded=0;" edge="1" parent="1" target="6feyMo93jq5YWXHwndtJ-134">
          <mxGeometry width="50" height="50" relative="1" as="geometry">
            <mxPoint x="550" y="370.5" as="sourcePoint" />
            <mxPoint x="610" y="369.5" as="targetPoint" />
          </mxGeometry>
        </mxCell>
        <mxCell id="6feyMo93jq5YWXHwndtJ-134" value="" style="rounded=0;whiteSpace=wrap;html=1;" vertex="1" parent="1">
          <mxGeometry x="610" y="340" width="120" height="60" as="geometry" />
        </mxCell>
        <mxCell id="6feyMo93jq5YWXHwndtJ-135" value="" style="endArrow=classic;html=1;rounded=0;" edge="1" parent="1">
          <mxGeometry width="50" height="50" relative="1" as="geometry">
            <mxPoint x="94.47" y="410" as="sourcePoint" />
            <mxPoint x="94.47" y="460" as="targetPoint" />
            <Array as="points">
              <mxPoint x="94.47" y="460" />
            </Array>
          </mxGeometry>
        </mxCell>
        <mxCell id="6feyMo93jq5YWXHwndtJ-137" value="anak" style="rounded=0;whiteSpace=wrap;html=1;" vertex="1" parent="1">
          <mxGeometry x="50" y="460" width="95" height="50" as="geometry" />
        </mxCell>
        <mxCell id="6feyMo93jq5YWXHwndtJ-138" value="" style="endArrow=classic;html=1;rounded=0;" edge="1" parent="1">
          <mxGeometry width="50" height="50" relative="1" as="geometry">
            <mxPoint x="230" y="410" as="sourcePoint" />
            <mxPoint x="230" y="460" as="targetPoint" />
            <Array as="points">
              <mxPoint x="230" y="460" />
            </Array>
          </mxGeometry>
        </mxCell>
        <mxCell id="6feyMo93jq5YWXHwndtJ-139" value="usia (13-19)" style="edgeLabel;html=1;align=center;verticalAlign=middle;resizable=0;points=[];" vertex="1" connectable="0" parent="6feyMo93jq5YWXHwndtJ-138">
          <mxGeometry x="-0.3579" y="4" relative="1" as="geometry">
            <mxPoint x="-4" y="-56" as="offset" />
          </mxGeometry>
        </mxCell>
        <mxCell id="6feyMo93jq5YWXHwndtJ-140" value="" style="rounded=0;whiteSpace=wrap;html=1;" vertex="1" parent="1">
          <mxGeometry x="182.5" y="460" width="95" height="50" as="geometry" />
        </mxCell>
        <mxCell id="6feyMo93jq5YWXHwndtJ-141" value="" style="rounded=0;whiteSpace=wrap;html=1;" vertex="1" parent="1">
          <mxGeometry x="322.5" y="460" width="95" height="50" as="geometry" />
        </mxCell>
        <mxCell id="6feyMo93jq5YWXHwndtJ-142" value="" style="endArrow=classic;html=1;rounded=0;exitX=0.5;exitY=1;exitDx=0;exitDy=0;" edge="1" parent="1" source="6feyMo93jq5YWXHwndtJ-130">
          <mxGeometry width="50" height="50" relative="1" as="geometry">
            <mxPoint x="369" y="430" as="sourcePoint" />
            <mxPoint x="369.47" y="460" as="targetPoint" />
            <Array as="points">
              <mxPoint x="369.47" y="460" />
            </Array>
          </mxGeometry>
        </mxCell>
        <mxCell id="6feyMo93jq5YWXHwndtJ-143" value="usia (20-64)" style="edgeLabel;html=1;align=center;verticalAlign=middle;resizable=0;points=[];" vertex="1" connectable="0" parent="6feyMo93jq5YWXHwndtJ-142">
          <mxGeometry x="-0.3579" y="4" relative="1" as="geometry">
            <mxPoint x="-4" y="-56" as="offset" />
          </mxGeometry>
        </mxCell>
        <mxCell id="6feyMo93jq5YWXHwndtJ-144" value="" style="endArrow=classic;html=1;rounded=0;" edge="1" parent="1">
          <mxGeometry width="50" height="50" relative="1" as="geometry">
            <mxPoint x="509.47" y="410" as="sourcePoint" />
            <mxPoint x="509.47" y="460" as="targetPoint" />
            <Array as="points">
              <mxPoint x="509.47" y="460" />
            </Array>
          </mxGeometry>
        </mxCell>
        <mxCell id="6feyMo93jq5YWXHwndtJ-145" value="usia &amp;gt; 65" style="edgeLabel;html=1;align=center;verticalAlign=middle;resizable=0;points=[];" vertex="1" connectable="0" parent="6feyMo93jq5YWXHwndtJ-144">
          <mxGeometry x="-0.3579" y="4" relative="1" as="geometry">
            <mxPoint x="-3" y="-56" as="offset" />
          </mxGeometry>
        </mxCell>
        <mxCell id="6feyMo93jq5YWXHwndtJ-146" value="" style="rounded=0;whiteSpace=wrap;html=1;" vertex="1" parent="1">
          <mxGeometry x="462.5" y="460" width="95" height="50" as="geometry" />
        </mxCell>
        <mxCell id="6feyMo93jq5YWXHwndtJ-147" value="" style="endArrow=classic;html=1;rounded=0;" edge="1" parent="1">
          <mxGeometry width="50" height="50" relative="1" as="geometry">
            <mxPoint x="512.5" y="510" as="sourcePoint" />
            <mxPoint x="90" y="560" as="targetPoint" />
            <Array as="points">
              <mxPoint x="513" y="560" />
            </Array>
          </mxGeometry>
        </mxCell>
        <mxCell id="6feyMo93jq5YWXHwndtJ-149" value="" style="endArrow=classic;html=1;rounded=0;exitX=0.5;exitY=1;exitDx=0;exitDy=0;" edge="1" parent="1">
          <mxGeometry width="50" height="50" relative="1" as="geometry">
            <mxPoint x="370" y="510" as="sourcePoint" />
            <mxPoint x="369.47" y="560" as="targetPoint" />
            <Array as="points">
              <mxPoint x="369.47" y="560" />
            </Array>
          </mxGeometry>
        </mxCell>
        <mxCell id="6feyMo93jq5YWXHwndtJ-150" value="dewasa" style="edgeLabel;html=1;align=center;verticalAlign=middle;resizable=0;points=[];" vertex="1" connectable="0" parent="6feyMo93jq5YWXHwndtJ-149">
          <mxGeometry x="-0.3579" y="4" relative="1" as="geometry">
            <mxPoint x="-4" y="-41" as="offset" />
          </mxGeometry>
        </mxCell>
        <mxCell id="6feyMo93jq5YWXHwndtJ-151" value="" style="endArrow=classic;html=1;rounded=0;exitX=0.5;exitY=1;exitDx=0;exitDy=0;" edge="1" parent="1">
          <mxGeometry width="50" height="50" relative="1" as="geometry">
            <mxPoint x="230" y="510" as="sourcePoint" />
            <mxPoint x="229.47000000000003" y="560" as="targetPoint" />
            <Array as="points">
              <mxPoint x="229.47000000000003" y="560" />
            </Array>
          </mxGeometry>
        </mxCell>
        <mxCell id="6feyMo93jq5YWXHwndtJ-152" value="remaja" style="edgeLabel;html=1;align=center;verticalAlign=middle;resizable=0;points=[];" vertex="1" connectable="0" parent="6feyMo93jq5YWXHwndtJ-151">
          <mxGeometry x="-0.3579" y="4" relative="1" as="geometry">
            <mxPoint x="-4" y="-46" as="offset" />
          </mxGeometry>
        </mxCell>
        <mxCell id="6feyMo93jq5YWXHwndtJ-153" value="" style="endArrow=classic;html=1;rounded=0;exitX=0.5;exitY=1;exitDx=0;exitDy=0;" edge="1" parent="1" source="6feyMo93jq5YWXHwndtJ-137">
          <mxGeometry width="50" height="50" relative="1" as="geometry">
            <mxPoint x="95" y="600" as="sourcePoint" />
            <mxPoint x="94.47000000000003" y="650" as="targetPoint" />
            <Array as="points">
              <mxPoint x="94.47000000000003" y="650" />
            </Array>
          </mxGeometry>
        </mxCell>
        <mxCell id="6feyMo93jq5YWXHwndtJ-154" value="usia (0-12)" style="edgeLabel;html=1;align=center;verticalAlign=middle;resizable=0;points=[];" vertex="1" connectable="0" parent="6feyMo93jq5YWXHwndtJ-153">
          <mxGeometry x="-0.3579" y="4" relative="1" as="geometry">
            <mxPoint x="-6" y="-185" as="offset" />
          </mxGeometry>
        </mxCell>
        <mxCell id="6feyMo93jq5YWXHwndtJ-155" value="" style="shape=parallelogram;perimeter=parallelogramPerimeter;whiteSpace=wrap;html=1;fixedSize=1;" vertex="1" parent="1">
          <mxGeometry x="37.5" y="640" width="120" height="60" as="geometry" />
        </mxCell>
        <mxCell id="6feyMo93jq5YWXHwndtJ-156" value="" style="endArrow=classic;html=1;rounded=0;exitX=0.5;exitY=1;exitDx=0;exitDy=0;" edge="1" parent="1">
          <mxGeometry width="50" height="50" relative="1" as="geometry">
            <mxPoint x="97.5" y="700" as="sourcePoint" />
            <mxPoint x="96.97000000000003" y="750" as="targetPoint" />
            <Array as="points">
              <mxPoint x="96.97000000000003" y="750" />
            </Array>
          </mxGeometry>
        </mxCell>
        <mxCell id="6feyMo93jq5YWXHwndtJ-157" value="output hasil" style="edgeLabel;html=1;align=center;verticalAlign=middle;resizable=0;points=[];" vertex="1" connectable="0" parent="6feyMo93jq5YWXHwndtJ-156">
          <mxGeometry x="-0.3579" y="4" relative="1" as="geometry">
            <mxPoint x="-4" y="-46" as="offset" />
          </mxGeometry>
        </mxCell>
        <mxCell id="6feyMo93jq5YWXHwndtJ-158" value="" style="ellipse;whiteSpace=wrap;html=1;" vertex="1" parent="1">
          <mxGeometry x="52.5" y="750" width="90" height="60" as="geometry" />
        </mxCell>
        <mxCell id="6feyMo93jq5YWXHwndtJ-159" value="mulai" style="edgeLabel;html=1;align=center;verticalAlign=middle;resizable=0;points=[];" vertex="1" connectable="0" parent="1">
          <mxGeometry x="90.00000000000003" y="179.99947368421053" as="geometry">
            <mxPoint y="-124" as="offset" />
          </mxGeometry>
        </mxCell>
        <mxCell id="6feyMo93jq5YWXHwndtJ-160" value="usia : int" style="edgeLabel;html=1;align=center;verticalAlign=middle;resizable=0;points=[];" vertex="1" connectable="0" parent="1">
          <mxGeometry x="95.00000000000003" y="269.99947368421056" as="geometry">
            <mxPoint y="-124" as="offset" />
          </mxGeometry>
        </mxCell>
        <mxCell id="6feyMo93jq5YWXHwndtJ-162" value="&lt;div style=&quot;text-align: center;&quot;&gt;&lt;span style=&quot;font-size: 11px; text-wrap: nowrap; background-color: rgb(255, 255, 255);&quot;&gt;input usia&lt;/span&gt;&lt;/div&gt;" style="text;whiteSpace=wrap;html=1;" vertex="1" parent="1">
          <mxGeometry x="65" y="240" width="70" height="40" as="geometry" />
        </mxCell>
        <mxCell id="6feyMo93jq5YWXHwndtJ-164" value="tidak valid" style="edgeLabel;html=1;align=center;verticalAlign=middle;resizable=0;points=[];" vertex="1" connectable="0" parent="1">
          <mxGeometry x="550" y="379.7894736842105" as="geometry">
            <mxPoint x="118" y="-16" as="offset" />
          </mxGeometry>
        </mxCell>
        <mxCell id="6feyMo93jq5YWXHwndtJ-165" value="&lt;div style=&quot;text-align: center;&quot;&gt;&lt;span style=&quot;font-size: 11px; text-wrap: nowrap; background-color: rgb(255, 255, 255);&quot;&gt;lansia&lt;/span&gt;&lt;/div&gt;" style="text;whiteSpace=wrap;html=1;" vertex="1" parent="1">
          <mxGeometry x="490" y="465" width="80" height="40" as="geometry" />
        </mxCell>
        <mxCell id="6feyMo93jq5YWXHwndtJ-166" value="&lt;div style=&quot;text-align: center;&quot;&gt;&lt;span style=&quot;font-size: 11px; text-wrap: nowrap; background-color: rgb(255, 255, 255);&quot;&gt;true&lt;/span&gt;&lt;/div&gt;" style="text;whiteSpace=wrap;html=1;" vertex="1" parent="1">
          <mxGeometry x="500" y="420" width="80" height="40" as="geometry" />
        </mxCell>
        <mxCell id="6feyMo93jq5YWXHwndtJ-169" value="&lt;div style=&quot;text-align: center;&quot;&gt;&lt;span style=&quot;font-size: 11px; text-wrap: nowrap; background-color: rgb(255, 255, 255);&quot;&gt;true&lt;/span&gt;&lt;/div&gt;" style="text;whiteSpace=wrap;html=1;" vertex="1" parent="1">
          <mxGeometry x="360" y="420" width="80" height="40" as="geometry" />
        </mxCell>
        <mxCell id="6feyMo93jq5YWXHwndtJ-170" value="&lt;div style=&quot;text-align: center;&quot;&gt;&lt;span style=&quot;font-size: 11px; text-wrap: nowrap; background-color: rgb(255, 255, 255);&quot;&gt;true&lt;/span&gt;&lt;/div&gt;" style="text;whiteSpace=wrap;html=1;" vertex="1" parent="1">
          <mxGeometry x="220" y="420" width="80" height="40" as="geometry" />
        </mxCell>
        <mxCell id="6feyMo93jq5YWXHwndtJ-171" value="&lt;div style=&quot;text-align: center;&quot;&gt;&lt;span style=&quot;font-size: 11px; text-wrap: nowrap; background-color: rgb(255, 255, 255);&quot;&gt;true&lt;/span&gt;&lt;/div&gt;" style="text;whiteSpace=wrap;html=1;" vertex="1" parent="1">
          <mxGeometry x="80" y="420" width="80" height="40" as="geometry" />
        </mxCell>
        <mxCell id="6feyMo93jq5YWXHwndtJ-172" value="&lt;div style=&quot;text-align: center;&quot;&gt;&lt;span style=&quot;font-size: 11px; text-wrap: nowrap; background-color: rgb(255, 255, 255);&quot;&gt;false&lt;/span&gt;&lt;/div&gt;" style="text;whiteSpace=wrap;html=1;" vertex="1" parent="1">
          <mxGeometry x="145" y="359.79" width="80" height="40" as="geometry" />
        </mxCell>
        <mxCell id="6feyMo93jq5YWXHwndtJ-173" value="&lt;div style=&quot;text-align: center;&quot;&gt;&lt;span style=&quot;font-size: 11px; text-wrap: nowrap; background-color: rgb(255, 255, 255);&quot;&gt;false&lt;/span&gt;&lt;/div&gt;" style="text;whiteSpace=wrap;html=1;" vertex="1" parent="1">
          <mxGeometry x="280" y="360" width="80" height="40" as="geometry" />
        </mxCell>
        <mxCell id="6feyMo93jq5YWXHwndtJ-174" value="&lt;div style=&quot;text-align: center;&quot;&gt;&lt;span style=&quot;font-size: 11px; text-wrap: nowrap; background-color: rgb(255, 255, 255);&quot;&gt;false&lt;/span&gt;&lt;/div&gt;" style="text;whiteSpace=wrap;html=1;" vertex="1" parent="1">
          <mxGeometry x="425" y="359.79" width="80" height="40" as="geometry" />
        </mxCell>
        <mxCell id="6feyMo93jq5YWXHwndtJ-176" value="&lt;div style=&quot;text-align: center;&quot;&gt;&lt;span style=&quot;font-size: 11px; text-wrap: nowrap; background-color: rgb(255, 255, 255);&quot;&gt;false&lt;/span&gt;&lt;/div&gt;" style="text;whiteSpace=wrap;html=1;" vertex="1" parent="1">
          <mxGeometry x="557.5" y="359.79" width="80" height="40" as="geometry" />
        </mxCell>
        <mxCell id="6feyMo93jq5YWXHwndtJ-177" value="selesai" style="edgeLabel;html=1;align=center;verticalAlign=middle;resizable=0;points=[];" vertex="1" connectable="0" parent="1">
          <mxGeometry x="95.00241627984842" y="679.8309843244926" as="geometry">
            <mxPoint x="2" y="98" as="offset" />
          </mxGeometry>
        </mxCell>
      </root>
    </mxGraphModel>
  </diagram>
</mxfile>
